<?xml version="1.0" encoding="UTF-8"?>
<svg width="16px" height="16px" viewBox="0 0 16 16" xmlns="http://www.w3.org/2000/svg" xmlns:xlink="http://www.w3.org/1999/xlink" version="1.1">
 <!-- Generated by Pixelmator Pro 2.0.6 -->
 <defs>
  <path id="~" d="M14.558 7.419 C13.91 8.9 13.287 9.901 12.689 10.42 12.069 10.94 11.432 11.2 10.777 11.2 9.751 11.143 8.833 10.62 8.021 9.63 L6.387 7.611 C6.116 7.262 5.764 7.095 5.329 7.109 4.881 7.109 4.536 7.326 4.293 7.761 4.044 8.209 3.734 8.907 3.364 9.854 L1.634 8.861 C1.855 8.156 2.104 7.551 2.382 7.045 2.659 6.54 2.958 6.127 3.279 5.806 3.941 5.165 4.628 4.845 5.34 4.845 5.96 4.838 6.542 5.01 7.087 5.363 7.631 5.715 8.146 6.258 8.63 6.992 9.506 8.323 10.225 8.989 10.788 8.989 11.25 8.989 11.635 8.726 11.941 8.199 12.091 7.928 12.244 7.629 12.4 7.302 12.557 6.974 12.707 6.632 12.849 6.276 Z"/>
 </defs>
 <use id="~-1" xlink:href="#~" fill="#000000" fill-opacity="1" stroke="none"/>
 <use id="~-2" xlink:href="#~" fill="#ffffff" fill-opacity="1" stroke="none"/>
</svg>
